<?xml version="1.0" encoding="utf-8"?>
<!-- Generator: Adobe Illustrator 24.2.0, SVG Export Plug-In . SVG Version: 6.00 Build 0)  -->
<svg version="1.1" id="Calque_1" xmlns:serif="http://www.serif.com/"
	 xmlns="http://www.w3.org/2000/svg" xmlns:xlink="http://www.w3.org/1999/xlink" x="0px" y="0px" viewBox="0 0 186 59.9"
	 style="enable-background:new 0 0 186 59.9;" xml:space="preserve">
<style type="text/css">
	.st0{fill-rule:evenodd;clip-rule:evenodd;}
</style>
<g transform="matrix(6.12323e-17,-1,1,6.12323e-17,-635.99,2575.06)">
	<path class="st0" d="M2547.6,801.6c-6.1,5.3-12.5,10.2-18.5,15.7c-1.1,1-1.2,2.8-0.2,3.9c1,1.1,2.8,1.2,3.9,0.2
		c6.2-5.6,12.8-10.7,19.1-16.2c3.7,4,7.4,7.9,11,12c1,1.1,2.7,1.2,3.9,0.2c1.1-1,1.2-2.7,0.2-3.9c-3.5-4-7.2-7.9-10.8-11.8
		c4.4,0.1,8.8,0.2,13.2,0.4c1.5,0.1,2.8-1.1,2.9-2.6c0.1-1.5-1.1-2.8-2.6-2.9c-13.1-0.7-26.2-0.4-39.3-0.9c-1.5-0.1-2.8,1.1-2.9,2.6
		s1.1,2.8,2.6,2.9C2536,801.5,2541.8,801.5,2547.6,801.6z M2561.4,775.7c0.1,0.4,0.3,0.8,0.6,1.1c1,1.2,0.8,2.6,0.1,3.8
		c-0.9,1.5-2.5,2.7-4.2,3.1c-4.2,0.9-8.8-1.8-11.2-5.3c-0.6-0.8-1.5-1.2-2.4-1.2c-0.6-0.1-1.3,0-1.9,0.3
		c-7.9,4.4-15.7,9.2-23.7,13.2c-1.4,0.7-1.9,2.3-1.2,3.7c0.7,1.4,2.3,1.9,3.7,1.2c7.6-3.8,14.9-8.2,22.3-12.4
		c3.8,4.2,9.9,7,15.5,5.8c3-0.7,6.1-2.9,7.8-5.6c1.9-3.1,2.1-6.8-0.4-10c0-0.1,0-0.1,0-0.2c0.1-1.5-1.1-2.8-2.6-2.9
		c-8.6-0.5-17.3-1.2-25.8-2.2c-1.5-0.2-2.9,0.9-3.1,2.4c-0.2,1.5,0.9,2.9,2.4,3.1C2545.3,774.5,2553.4,775.2,2561.4,775.7z
		 M2555.9,749.6c1.7,1,3.2,2.7,4,4.4c0.3,0.8,0.6,1.6,0.3,2.4c-0.3,0.8-1.1,1.4-2.5,1.9c-5,1.7-12.2,0.8-17-1.3
		c-1.4-0.6-2.7-1.4-3.9-2.4c-1.5-1.3-2.4-2.4-2.7-3.5c-0.3-1.3,0.8-2.2,2-3c2.9-1.7,7.6-2.3,10.9-1.2c1.4,0.5,3-0.3,3.5-1.7
		c0.5-1.4-0.3-3-1.7-3.5c-4.1-1.4-9.7-1-13.8,0.8c-3.2,1.4-5.5,3.6-6.2,6.2c-0.8,2.8,0,6.4,4.4,10.1c1.6,1.3,3.4,2.4,5.3,3.2
		c5.9,2.5,14.9,3.6,21,1.4c3.4-1.2,5.1-3.2,5.9-5.3c0.7-2,0.5-4.2-0.4-6.4c-1.2-2.7-3.5-5.3-6.1-6.9c-1.3-0.8-3-0.4-3.8,0.9
		C2554.2,747.1,2554.6,748.8,2555.9,749.6z M2534.2,711.9c-0.6,0.3-1.1,0.7-1.4,1.4c-0.6,1.4-0.1,3,1.3,3.7c3.2,1.5,6.3,3,9.5,4.6
		c-4.1,1.4-8.3,2.7-12.3,4.1c-1.4,0.5-2.2,2.1-1.7,3.5c0.2,0.5,0.5,0.9,0.9,1.2c0.1,1.1,0.9,2.1,2,2.4c12,3.2,24.7,6.2,37.1,8.1
		c1.5,0.2,2.9-0.8,3.1-2.3c0.2-1.5-0.8-2.9-2.3-3.1c-10.4-1.6-21.1-4-31.4-6.6c3.9-1.3,7.8-2.5,11.6-3.8c0.7-0.2,1.2-0.7,1.6-1.3
		c0.1-0.2,0.3-0.3,0.4-0.5c0.7-1.3,0.2-3-1.1-3.7c-2.9-1.6-5.9-3.1-8.9-4.6c3.5-0.9,7.2-1.7,10.6-2.6c1.5-0.4,2.4-1.8,2-3.3
		s-1.8-2.4-3.3-2c-5.5,1.3-11.3,2.5-16.6,4.3C2534.8,711.5,2534.4,711.7,2534.2,711.9z M2561.4,696.9H2531c-1.5,0-2.7,1.2-2.7,2.7
		c0,1.5,1.2,2.7,2.7,2.7h31.4c0.5,0,1-0.1,1.4-0.4c2.2,5,4.2,10.2,5.9,15.3c0.5,1.4,2,2.2,3.5,1.7c1.4-0.5,2.2-2,1.7-3.5
		c-3-9-6.9-18.2-11.3-26.6c-0.7-1.3-2.4-1.9-3.7-1.1c-1.3,0.7-1.9,2.4-1.1,3.7C2559.7,693.3,2560.6,695.1,2561.4,696.9z
		 M2561.2,673.5c0.7,2.3,0.5,4.1-0.5,5.5c-2.4,3.4-8.5,3.3-11.8-1.2c-0.5-0.7-1.3-1.1-2.1-1.1c-0.8-0.4-1.8-0.5-2.7,0
		c-8.2,4.5-16.8,8.3-25.1,12.6c-1.3,0.7-1.8,2.4-1.1,3.7c0.7,1.3,2.4,1.8,3.7,1.1c7.8-4.2,16-7.7,23.8-11.9c5,5.6,12.8,5.8,17.4,2.3
		c3.5-2.5,5.5-7,3.5-12.9c-0.2-0.5-0.5-0.9-0.9-1.3c-0.2-1.3-1.3-2.3-2.7-2.4c-9.8-0.1-19.7-0.1-29.5-0.1c-1.5,0-2.7,1.2-2.7,2.8
		c0,1.5,1.2,2.7,2.8,2.7C2542.6,673.4,2551.9,673.4,2561.2,673.5z M2537.5,640.7c-2.6-0.7-5.2-1.4-7.8-2.2c-1.5-0.4-3,0.4-3.4,1.9
		c-0.4,1.5,0.4,3,1.9,3.4c3.1,0.9,6.2,1.8,9.4,2.6c0,3.8-0.1,7.6,0,11.3c-6.7,1.7-13.5,3.4-20.2,4.8c-1.5,0.3-2.4,1.8-2.1,3.3
		c0.3,1.5,1.8,2.4,3.3,2.1c6.4-1.4,12.8-2.9,19.2-4.6c0.3,1.3,1.4,2.2,2.8,2.2c1.5,0,2.7-1.3,2.7-2.8c0-0.3,0-0.5,0-0.8
		c8.5-2.2,17.1-4.6,25.6-6.9c1.5-0.4,2.3-1.9,1.9-3.4c-0.3-0.9-1-1.6-1.8-1.9c-0.3-0.3-0.6-0.5-1.1-0.6c-8.1-2.7-16.4-4.8-24.7-6.9
		c0-1.2,0-2.3-0.1-3.5c0-1.5-1.3-2.7-2.8-2.7c-1.5,0-2.7,1.3-2.7,2.8C2537.5,639.4,2537.5,640,2537.5,640.7z M2543.1,647.8
		c0,2.8,0,5.6,0,8.4c5.2-1.4,10.4-2.8,15.6-4.2C2553.5,650.5,2548.3,649.2,2543.1,647.8z"/>
</g>
</svg>
