<?xml version="1.0" encoding="utf-8"?>
<!-- Generator: Adobe Illustrator 24.2.0, SVG Export Plug-In . SVG Version: 6.00 Build 0)  -->
<svg version="1.1" id="Calque_1" xmlns:serif="http://www.serif.com/"
	 xmlns="http://www.w3.org/2000/svg" xmlns:xlink="http://www.w3.org/1999/xlink" x="0px" y="0px" viewBox="0 0 149.7 59.9"
	 style="enable-background:new 0 0 149.7 59.9;" xml:space="preserve">
<style type="text/css">
	.st0{fill-rule:evenodd;clip-rule:evenodd;}
</style>
<g transform="matrix(6.12323e-17,-1,1,6.12323e-17,111.648,2578.18)">
	<path class="st0" d="M2540.5,17c-4.2,2.8-8.3,5.6-12.5,8.5c-1.3,0.9-1.6,2.6-0.7,3.8c0.9,1.3,2.6,1.6,3.8,0.7
		c4.8-3.3,9.7-6.5,14.5-9.8c9.5,5.8,18.9,11.7,28.3,17.5c1.3,0.8,3,0.4,3.8-0.9c0.8-1.3,0.4-3-0.9-3.8c-8.8-5.4-17.5-10.8-26.3-16.2
		c2.5-1.7,4.9-3.4,7.4-5.2c1.2-0.9,1.5-2.6,0.6-3.8s-2.6-1.5-3.8-0.6c-3.1,2.2-6.1,4.4-9.2,6.5c-4.7-2.9-9.5-5.8-14.2-8.7
		c-1.3-0.8-3-0.4-3.8,0.9c-0.8,1.3-0.4,3,0.9,3.8C2532.5,12.1,2536.5,14.5,2540.5,17z M2552.6-17.8c-7.2-2.2-15.2-3.3-22.3,0.2
		c-2.1,1-4.3,2.9-5.4,5.1c-0.9,1.8-1.2,3.8-0.4,5.9c1.7,4.7,7.3,7.5,11.8,8.6c9,2.2,19.6,1.1,27.9-3.2c1.4-0.7,1.9-2.4,1.2-3.7
		c-0.7-1.4-2.4-1.9-3.7-1.2c-7.2,3.7-16.3,4.6-24.1,2.7c-1.6-0.4-3.4-1-5-2c-1.3-0.8-2.4-1.8-2.9-3.1c-0.3-0.7,0-1.4,0.5-1.9
		c0.7-0.9,1.7-1.7,2.7-2.2c5.8-2.9,12.3-1.7,18.3,0.1c1.5,0.4,3-0.4,3.4-1.8C2554.9-15.8,2554.1-17.3,2552.6-17.8z M2545.9-46.2
		c-5.6-2.1-12.6-2.8-17.9,0.5c-2.2,1.4-3.5,3-4.1,4.7c-0.9,2.5-0.3,5.3,1.2,7.9c2.1,3.5,6.2,6.7,9.4,8c6.2,2.5,14.8,3.5,21.1,0.6
		c4.2-1.9,6-5.5,5.8-9.1c-0.2-3.4-2.2-6.9-6-8.9c-1.4-0.7-3-0.2-3.7,1.2c-0.7,1.4-0.2,3,1.2,3.7c2.2,1.1,3.4,3.2,3,5.1
		c-0.2,1.2-1.1,2.3-2.6,3c-5,2.3-11.8,1.3-16.7-0.7c-2.3-0.9-5.2-3.2-6.8-5.7c-0.6-1.1-1.1-2.2-0.7-3.2c0.2-0.7,0.8-1.3,1.8-1.8
		c3.9-2.4,9-1.6,13.1,0c1.4,0.5,3-0.2,3.5-1.6C2548-44.1,2547.3-45.7,2545.9-46.2z M2556.7-62.5c-7.8,2.3-17.4,5.4-25.4,3.2
		c-1.5-0.4-2.6-1-3.3-1.7c-0.4-0.4-0.6-0.8-0.6-1.2c0-0.8,0.6-1.5,1.4-2.1c1.3-0.9,3.2-1.5,5.5-1.5c1.5,0,2.8-1.2,2.8-2.7
		c0-1.5-1.2-2.8-2.7-2.8c-6.4,0-10.7,3.2-12,6.6c-1.4,3.7,0.1,8.5,7.5,10.6c8.9,2.5,19.8-0.7,28.5-3.2c0.9,2.9,1.8,5.9,2.8,8.7
		c0.5,1.4,2.1,2.2,3.5,1.6c1.4-0.5,2.2-2.1,1.6-3.5c-2.3-6.4-4-13-6-19.5c-0.5-1.4-2-2.3-3.4-1.8c-1.4,0.5-2.3,2-1.8,3.4
		C2555.6-66.3,2556.1-64.4,2556.7-62.5z M2560-81c-10.9,0.3-21.8,0.6-32.7,1c-1.5,0.1-2.7,1.3-2.7,2.8c0.1,1.5,1.3,2.7,2.8,2.7
		c10.9-0.4,21.8-0.7,32.7-1c1.5,0,2.7-1.3,2.7-2.8C2562.8-79.9,2561.5-81.1,2560-81z M2562.3-106.1c0.7,4.3-1.7,7.3-4.9,8.4
		c-3.4,1.1-7.6-0.1-9.1-4.5c-0.5-1.4-2-2.1-3.4-1.7c-0.3-0.1-0.6-0.1-0.9,0c-1.5,0.2-2.6,1.6-2.4,3.1c0.8,6.1-4.7,13.1-11.2,10.4
		c-4-1.6-5.5-6-6.8-9.8c-0.5-1.4-2.1-2.2-3.5-1.7c-1.4,0.5-2.2,2.1-1.7,3.5c1.8,5.3,4.4,10.8,9.9,13.1c8.2,3.4,15.8-2.3,18.1-9.7
		c5.4,5.1,14.3,3.9,18.8-1.5c2.4-2.9,3.6-7.1,2.1-12.2c-0.3-1-1-1.7-2-1.9c-0.5-0.6-1.3-1-2.2-0.9c-12.6,0.4-25.3,0.7-37.9,1.1
		c-1.5,0-2.7,1.3-2.7,2.8c0,1.5,1.3,2.7,2.8,2.7C2537.8-105.5,2550-105.7,2562.3-106.1z"/>
</g>
</svg>
