<?xml version="1.0" encoding="utf-8"?>
<!-- Generator: Adobe Illustrator 24.2.0, SVG Export Plug-In . SVG Version: 6.00 Build 0)  -->
<svg version="1.1" id="Calque_1" xmlns:serif="http://www.serif.com/"
	 xmlns="http://www.w3.org/2000/svg" xmlns:xlink="http://www.w3.org/1999/xlink" x="0px" y="0px" viewBox="0 0 36.5 95.4"
	 style="enable-background:new 0 0 36.5 95.4;" xml:space="preserve">
<style type="text/css">
	.st0{fill-rule:evenodd;clip-rule:evenodd;}
</style>
<g transform="matrix(1,0,0,1,-540.487,-152.326)">
	<path class="st0" d="M571.5,168.4c-2.4,1.4-4.8,2.8-7.3,4.2c0-2.1,0-4.3,0-6.4c0-1.5-1.2-2.8-2.7-2.8c-1.5,0-2.8,1.2-2.8,2.7
		c0,12.4-0.1,24.7-0.2,37.1c-5.1,0.2-10.2,0.4-15.3,0.5c-1.5,0-2.7,1.3-2.7,2.8c0,0,0,0.1,0,0.1c0,0.2-0.1,0.4-0.1,0.6
		c0,7.9,0,16,0.1,23.9c0,1.5,1.3,2.7,2.8,2.7c1.5,0,2.7-1.3,2.7-2.8c0-3.9,0-7.9-0.1-11.9c1.2,0,2.5-0.1,3.7-0.1
		c-0.1,8.6,0.1,17.3,0.3,25.9c0,1.5,1.3,2.7,2.8,2.7c1.5,0,2.7-1.3,2.7-2.8c-0.2-8.6-0.4-17.3-0.3-25.9l1.6,0c0.5,0,0.9,0,1.4,0
		l0.1,0c0,3.9,0.1,7.9,0.2,11.8c0,1.5,1.3,2.7,2.8,2.7c1.5,0,2.7-1.3,2.7-2.8c-0.1-3.9-0.2-7.9-0.2-11.8c2.5-0.1,5.1-0.1,7.6-0.1
		c0,8.1,0,16.3,0,24.5c0,1.5,1.2,2.7,2.8,2.7c1.5,0,2.7-1.2,2.7-2.8c0-19.7,0-39.1,0-58.7c0-9.8,0-19.6,0-29.3
		c0-1.5-1.2-2.7-2.7-2.7c-1.5,0-2.7,1.2-2.7,2.7C571.4,159.5,571.5,164,571.5,168.4z M571.5,208.3c-8.5,0.3-17,0.6-25.5,0.9
		c0,1.5,0,3,0,4.6c8.5-0.2,17-0.5,25.5-0.6v-1.2c0-0.6,0-1.2,0-1.8L571.5,208.3z M571.5,185.5c-2.4,0.8-4.9,1.6-7.3,2.3
		c0,5.1-0.1,10.2-0.1,15.3c2.5-0.1,4.9-0.2,7.4-0.3C571.5,197.1,571.5,191.3,571.5,185.5z M571.5,171.9c-2.4,1.4-4.9,2.8-7.3,4.2
		c0,2.9,0,5.7,0,8.6c2.5-0.7,4.9-1.6,7.3-2.3C571.5,178.9,571.5,175.4,571.5,171.9z"/>
</g>
</svg>
