<?xml version="1.0" encoding="utf-8"?>
<!-- Generator: Adobe Illustrator 24.2.0, SVG Export Plug-In . SVG Version: 6.00 Build 0)  -->
<svg version="1.1" id="Calque_1" xmlns:serif="http://www.serif.com/"
	 xmlns="http://www.w3.org/2000/svg" xmlns:xlink="http://www.w3.org/1999/xlink" x="0px" y="0px" viewBox="0 0 39.3 22.2"
	 style="enable-background:new 0 0 39.3 22.2;" xml:space="preserve">
<style type="text/css">
	.st0{fill-rule:evenodd;clip-rule:evenodd;}
</style>
<g transform="matrix(1,0,0,1,-721.314,98.0439)">
	<path class="st0" d="M740.9-90.6c0,0-0.1,0-0.1,0c-0.4,0-0.7,0.3-0.7,0.6c-0.1,2.6-0.3,5.1-0.3,7.7c0,0.4,0.3,0.7,0.6,0.7
		c0.4,0,0.7-0.3,0.7-0.6c0.1-2.4,0.2-4.9,0.3-7.3c0.1,0,0.2,0,0.3-0.1c0.8-0.3,1.4-0.4,1.9-0.1c0.7,0.4,1.1,1.2,1.2,2.2
		c0,0.9-0.2,1.9-0.8,2.5c-0.2-0.1-0.5-0.1-0.7,0.1c-0.3,0.2-0.4,0.6-0.1,0.9c0,0,0,0.1,0.1,0.1c0,0.1,0.1,0.2,0.1,0.3
		c0.1,0.1,0.1,0.1,0.2,0.2c1.6,2.4,2.6,5.2,4.4,7.4c0.2,0.3,0.6,0.3,0.9,0.1c0.3-0.2,0.3-0.6,0.1-0.9c-1.7-2.1-2.7-4.8-4.2-7.1
		c0.9-1,1.4-2.4,1.3-3.7c-0.1-1.4-0.8-2.7-1.9-3.3c-0.8-0.4-1.8-0.4-3,0.1C741-90.8,741-90.7,740.9-90.6z M723-82.7
		c1.1-0.1,2.1-0.3,3.2-0.4c0.2,0,0.3-0.1,0.4-0.2c0.1,1.8,0.2,3.6,0.4,5.4c0,0.4,0.4,0.6,0.7,0.6c0.4,0,0.6-0.4,0.6-0.7
		c-0.4-3.7-0.6-7.4-0.7-11.1c0-0.4-0.3-0.6-0.7-0.6c-0.4,0-0.6,0.3-0.6,0.7c0.1,1.6,0.1,3.3,0.2,4.9c-0.1-0.1-0.3-0.2-0.5-0.2
		c-1.1,0.1-2.1,0.2-3.2,0.4c-0.2-2.1-0.3-4.2-0.3-6.2c0-0.4-0.3-0.7-0.6-0.7c-0.4,0-0.7,0.3-0.7,0.6c-0.1,3.8,0.5,7.5,0.6,11.2
		c0,0.4,0.3,0.6,0.7,0.6c0.4,0,0.6-0.3,0.6-0.7C723.1-80.3,723.1-81.5,723-82.7z M734-89.8c0,0-0.1-0.1-0.1-0.1
		c-0.3-0.2-0.7-0.1-0.9,0.2c-1.4,2.2-3,5.3-2.7,8.1c0.1,0.6,0.3,1.4,0.6,1.9c0.6,0.9,1.7,1.1,2.7,1c1.8-0.2,3.2-1.1,4.2-2.6
		c0.2-0.3,0.1-0.7-0.1-0.9s-0.7-0.1-0.9,0.1c-0.8,1.1-1.9,1.9-3.3,2c-0.5,0.1-1.2,0.1-1.5-0.4c-0.3-0.4-0.4-0.9-0.4-1.4
		c0-0.4-0.1-0.8,0-1.2c0.1,0,0.2,0,0.2,0c0.8-0.2,1.6-0.6,2.3-0.9c0.3-0.2,0.5-0.5,0.3-0.9c-0.2-0.3-0.5-0.5-0.9-0.3
		c-0.6,0.3-1.2,0.5-1.8,0.7c0.4-1.4,1.1-2.8,1.8-4c0,0,0.1,0,0.1,0c1.1-0.4,2.2-0.7,3.3-1.2c0.3-0.1,0.5-0.5,0.3-0.9
		c-0.1-0.3-0.5-0.5-0.8-0.3C735.7-90.4,734.9-90.1,734-89.8z M752.1-91.2c-0.2-0.1-0.5-0.1-0.8,0.1c-1.8,1.6-3.2,4.5-2.7,6.9
		c0.2,0.7,0.5,1.6,1,2.2c0.4,0.5,0.9,0.9,1.4,1.1c0.7,0.2,1.5,0.1,2.3-0.2c1-0.4,1.9-1.3,2.4-2c0.2-0.3,0.1-0.7-0.2-0.9
		c-0.3-0.2-0.7-0.1-0.9,0.2c-0.4,0.6-1.1,1.2-1.9,1.6c-0.4,0.2-0.9,0.3-1.4,0.1c-0.3-0.1-0.6-0.3-0.8-0.6c-0.4-0.5-0.7-1.2-0.8-1.7
		c-0.1-0.2-0.1-0.5-0.1-0.7c0.1,0,0.2,0,0.3,0c0.5-0.1,1-0.2,1.5-0.4c0.3-0.1,0.5-0.5,0.4-0.8s-0.5-0.5-0.8-0.4
		c-0.4,0.1-0.7,0.2-1.1,0.3c0.3-1.3,1.1-2.6,2-3.4c0.1,0,0.2,0,0.3,0c0.9-0.1,1.8-0.3,2.7-0.5c0.4-0.1,0.6-0.4,0.5-0.8
		c-0.1-0.4-0.4-0.6-0.8-0.5C753.8-91.5,753-91.3,752.1-91.2C752.1-91.2,752.1-91.2,752.1-91.2z M758.9-82.2c0.3,0.2,0.5,0.3,0.8,0.5
		c0.3,0.2,0.7,0.1,0.9-0.2c0.2-0.3,0.1-0.7-0.3-0.9c-0.3-0.1-0.5-0.3-0.8-0.4c-0.3-0.2-0.7-0.1-0.9,0.2
		C758.5-82.8,758.6-82.4,758.9-82.2z M759-97.4c-0.2,3.8-0.4,7.6-0.3,11.4c0,0.4,0.3,0.6,0.7,0.6c0.4,0,0.6-0.3,0.6-0.7
		c-0.1-3.8,0.1-7.5,0.3-11.3c0-0.4-0.3-0.7-0.6-0.7C759.3-98.1,759-97.8,759-97.4z"/>
</g>
</svg>
