<?xml version="1.0" encoding="utf-8"?>
<!-- Generator: Adobe Illustrator 24.2.0, SVG Export Plug-In . SVG Version: 6.00 Build 0)  -->
<svg version="1.1" id="Calque_1" xmlns:serif="http://www.serif.com/"
	 xmlns="http://www.w3.org/2000/svg" xmlns:xlink="http://www.w3.org/1999/xlink" x="0px" y="0px" viewBox="0 0 178.5 50.4"
	 style="enable-background:new 0 0 178.5 50.4;" xml:space="preserve">
<style type="text/css">
	.st0{fill-rule:evenodd;clip-rule:evenodd;}
</style>
<g transform="matrix(1,0,0,1,-41.7553,214.675)">
	<path class="st0" d="M88.3-204.9c-1.1,0.3-1.9,1.3-2,2.5c-0.5,8.6-0.3,17.3-0.5,25.9c0,1.5,1.2,2.8,2.7,2.8c1.5,0,2.8-1.2,2.8-2.7
		c0.2-8.1,0-16.1,0.4-24.2c1.4-0.8,2.8-1,4.1-0.6c2.4,0.8,4.2,3.3,4.5,6.3c0.3,3.2-1.8,5.4-4.1,7.4c-0.1,0.1-0.2,0.1-0.3,0.2
		c-1.3,0.8-1.7,2.5-0.9,3.8c4.1,6.4,9.1,12.4,13.9,18.3c1,1.2,2.7,1.3,3.9,0.4c1.2-1,1.3-2.7,0.4-3.9c-4.2-5-8.5-10.2-12.2-15.6
		c3-2.9,5.2-6.4,4.8-10.9c-0.5-5.4-4-9.7-8.3-11.1C94.6-207.3,91.4-207.1,88.3-204.9z M63.3-187.2c-0.8,3.9-1.3,9.6,0.9,13.3
		c1.6,2.6,3.5,3.8,5.3,4.1c1.9,0.3,3.8-0.2,5.6-1.4c2.8-1.9,5.3-5.5,6.2-8.4c1.6-4.9,2.4-11.3,0.3-16.2c-1.6-3.7-4.2-5.6-7-5.8
		c-2.7-0.2-5.7,1.1-8,4.5c-0.9,1.3-0.5,3,0.7,3.8c1.3,0.9,3,0.5,3.8-0.7c0.9-1.4,1.9-2.2,3-2.1c1,0.1,1.8,1.1,2.4,2.5
		c1.6,3.7,0.8,8.6-0.5,12.4c-0.4,1.1-1.1,2.5-2.1,3.6c-0.7,0.9-1.5,1.7-2.4,2.1c-0.5,0.2-0.9,0.4-1.4,0.3c-0.5-0.2-0.9-0.7-1.4-1.4
		c-1.5-2.6-0.8-6.6-0.2-9.4c0.3-1.5-0.7-2.9-2.1-3.2C65-189.6,63.6-188.7,63.3-187.2z M43.4-206.7c-1,0.5-1.7,1.6-1.6,2.8
		c1,10.5,1.2,20.9,2.1,31.4c0.1,1.5,1.5,2.6,3,2.5c1.5-0.1,2.6-1.5,2.5-3c-0.9-9.9-1.1-19.7-1.9-29.6c2-0.8,4.4-1.1,6.3-0.3
		c1.7,0.7,3,2.4,3.6,4.2c0.6,1.7,0.5,3.7-0.6,5.1c-0.9,1.2-2.1,2-3.4,2.8c-1.3,0.8-1.8,2.4-1,3.8c0.8,1.3,2.4,1.8,3.8,1
		c1.9-1.1,3.8-2.4,5.1-4.3c2.2-2.9,2.5-6.7,1.4-10.1c-1.1-3.3-3.5-6.2-6.7-7.5c-3.6-1.5-8.5-0.8-11.9,0.9
		C43.7-207,43.5-206.9,43.4-206.7z M204.7-196.7c0.4-1.3,1.7-3.2,3.3-4.8c0.9-0.9,1.9-1.7,2.9-2c0.4-0.2,0.8-0.3,1.2-0.2
		c0.3,0.1,0.6,0.4,0.8,0.8c3,4.7,1.9,12.3,0.8,17.4c-0.5,2.4-0.9,5.3-2.9,7c-0.8,0.7-1.9,1.1-3,1.1c-2,0-3.3-1.1-4.1-2.7
		c-1-2-1.3-4.6-1-6.7c0.2-1.5-0.9-2.9-2.4-3.1c-1.5-0.2-2.9,0.9-3.1,2.4c-0.4,3.1,0.1,6.9,1.5,9.9c1.7,3.4,4.7,5.8,9.2,5.7
		c2.4-0.1,4.7-0.9,6.5-2.4c2.8-2.4,3.9-6.6,4.6-10c1.4-6.4,2.2-15.7-1.5-21.5c-1-1.6-2.2-2.5-3.5-2.9c-1.9-0.7-4-0.4-6,0.6
		c-4,2-7.8,7.1-8.6,10.1c-0.4,1.5,0.5,3,1.9,3.4C202.8-194.3,204.3-195.2,204.7-196.7z M124.9-199.8c-0.1,8.2,0,16.5,0.2,24.7
		c0,1.5,1.3,2.7,2.8,2.7c1.5,0,2.7-1.3,2.7-2.8c-0.1-3.5-0.2-7-0.2-10.5c0.2,0,0.3-0.1,0.5-0.1c1.6-0.6,3.2-1.2,4.7-1.8
		c1.4-0.6,2.1-2.2,1.5-3.6c-0.6-1.4-2.2-2.1-3.6-1.5c-1.1,0.4-2.1,0.8-3.2,1.2c0-2.3,0-4.6,0-6.8c4.8-1.7,9.8-3.9,14.6-5
		c1.5-0.3,2.4-1.8,2.1-3.3c-0.3-1.5-1.8-2.4-3.3-2.1c-5.6,1.3-11.6,3.9-17,5.8C125.3-202.5,124.6-201.1,124.9-199.8z M169.2-179.2
		c0-0.4,0.1-0.8,0.2-1.2c0.4-1.8,0.9-3.8,1.1-4.5c1.5-7.5,3.7-17.4,6.4-24.4c0.5-1.4-0.2-3-1.6-3.6c-1.4-0.5-3,0.2-3.6,1.6
		c-2.8,7.3-5.1,17.5-6.7,25.3c-0.2,1.1-1.4,5.2-1.5,7.3c0,1.3,0.3,2.3,0.7,2.8c0.9,1.2,2.3,1.9,3.9,2.1c1.5,0.2,3.2-0.1,4.3-0.3
		c5.1-0.9,10.7-2.3,15.3-4.6c1.4-0.7,1.9-2.3,1.2-3.7c-0.7-1.4-2.3-1.9-3.7-1.2c-4.2,2.1-9.2,3.3-13.8,4.1c-0.5,0.1-1.2,0.2-1.9,0.3
		C169.5-179.2,169.3-179.2,169.2-179.2z M141.5-190.9c-2.1,3.7-2.6,10.1,0,13.7c1.9,2.6,4.8,3.6,7.7,3.3c2.6-0.3,5.3-1.6,7-3.4
		c4-4.3,5.8-11.4,4.7-17.1c-0.7-3.6-3.2-6.3-6.3-7.1c-2.1-0.5-4.5-0.2-6.8,1.3c-1.3,0.9-1.6,2.6-0.7,3.8c0.9,1.3,2.6,1.6,3.8,0.7
		c0.8-0.6,1.6-0.7,2.4-0.6c1.2,0.3,2,1.4,2.3,2.8c0.8,4.1-0.5,9.2-3.4,12.3c-0.9,0.9-2.2,1.6-3.5,1.7c-1,0.1-2.1-0.1-2.7-1
		c-1.5-2.1-1-5.7,0.2-7.8c0.8-1.3,0.3-3-1-3.8C143.9-192.7,142.2-192.2,141.5-190.9z M110.3-203.9c0.1,5.8,0.7,11.5,0.5,17.3
		c-0.1,1.5,1.1,2.8,2.6,2.9c1.5,0.1,2.8-1.1,2.9-2.6c0.2-6.2-0.4-12.4-0.5-18.5c0-0.1,0-0.2,0-0.2c6.2-1.3,12.5-2.7,18.7-4
		c1.5-0.3,2.4-1.8,2.1-3.2c-0.3-1.5-1.8-2.4-3.2-2.1c-6.8,1.4-13.6,2.9-20.4,4.4c-2.7,0.6-5.2,1.5-8,1.7c-1.5,0.1-2.6,1.5-2.5,3
		c0.1,1.5,1.5,2.6,3,2.5C107.1-203.1,108.7-203.5,110.3-203.9z M187-206.1c-0.7,5.1-1.4,10.6-1.4,15.8c0,1.5,1.3,2.7,2.8,2.7
		c1.5,0,2.7-1.3,2.7-2.8c-0.1-4.9,0.7-10.1,1.3-15c0.2-1.5-0.9-2.9-2.4-3.1C188.6-208.6,187.2-207.6,187-206.1z"/>
</g>
</svg>
