<?xml version="1.0" encoding="utf-8"?>
<!-- Generator: Adobe Illustrator 24.2.0, SVG Export Plug-In . SVG Version: 6.00 Build 0)  -->
<svg version="1.1" id="Calque_1" xmlns:serif="http://www.serif.com/"
	 xmlns="http://www.w3.org/2000/svg" xmlns:xlink="http://www.w3.org/1999/xlink" x="0px" y="0px" viewBox="0 0 206.9 50.9"
	 style="enable-background:new 0 0 206.9 50.9;" xml:space="preserve">
<style type="text/css">
	.st0{fill-rule:evenodd;clip-rule:evenodd;}
</style>
<g transform="matrix(1,0,0,1,104.126,363.117)">
	<path class="st0" d="M-55.5-339.1c-1.4-3.1-2.7-6.3-4-9.5c-0.6-1.4-2.2-2.1-3.6-1.5c-1.4,0.6-2.1,2.2-1.5,3.6
		c2,4.9,4.1,9.7,6.3,14.6c-2,5.2-4,10.5-6.7,15.3c-0.7,1.3-0.3,3,1.1,3.7c1.3,0.7,3,0.3,3.7-1.1c2-3.6,3.6-7.4,5.2-11.2
		c1.9,3.8,3.8,7.6,5.7,11.4c0.7,1.4,2.3,1.9,3.7,1.2c1.4-0.7,1.9-2.3,1.2-3.7c-2.7-5.3-5.3-10.6-7.9-16c0.6-1.7,1.3-3.3,2-5
		c2.4-5.8,5.1-11.4,7.9-17.1c0.7-1.4,0.1-3-1.3-3.7c-1.4-0.7-3-0.1-3.7,1.3c-2.8,5.7-5.6,11.5-8,17.4L-55.5-339.1z M-34.2-342.2
		c-2,8.6-2.9,17.4-4.3,26.1c-0.2,1.5,0.8,2.9,2.3,3.2c1.5,0.2,2.9-0.8,3.2-2.3c1.6-9.7,2.5-19.6,5-29.1c0.2-0.6,0.1-1.2-0.1-1.7
		c3.8-2.5,7.5-5,11.4-7.1c1.3-0.7,1.8-2.4,1.1-3.7c-0.7-1.3-2.4-1.8-3.7-1.1c-8.9,4.9-16.8,11.7-26.4,15.4c-1.4,0.5-2.1,2.1-1.6,3.6
		c0.5,1.4,2.1,2.1,3.6,1.6C-40.4-338.7-37.3-340.4-34.2-342.2z M-90.4-327c-2.6-5.5-5.2-10.9-7.9-16.3c-0.1-0.3-0.2-0.5-0.4-0.8
		c-0.1-0.1-0.1-0.3-0.2-0.4c-0.7-1.4-2.3-1.9-3.7-1.2c-1.4,0.7-1.9,2.3-1.2,3.7c0.1,0.1,0.1,0.3,0.2,0.4c0.7,6.2,1.2,12.4,1.9,18.5
		c0.3,2.5,0.1,5.3,0.7,7.7c0.4,1.5,1.9,2.4,3.3,2c1.5-0.4,2.4-1.9,2-3.3c-0.5-2.2-0.4-4.7-0.6-6.9c-0.1-1.2-0.2-2.4-0.4-3.6
		c1.7,3.6,3.4,7.1,5.2,10.7c0.5,1,1.6,1.6,2.6,1.5c0.2,0.1,0.5,0.1,0.7,0.1c1.5,0.1,2.8-1.1,2.9-2.6c0.8-14.2-0.7-28.5,0.4-42.7
		c0.1-1.5-1-2.8-2.5-2.9c-1.5-0.1-2.8,1-2.9,2.5C-91.2-349.4-90.4-338.2-90.4-327z M-80.1-345.8c-1.7,8-3.3,16.1-2.7,24.3
		c0.3,4.3,2.1,6.5,4.3,7.4c2.9,1.3,7.3,0,10.8-3.6c1.5-1.6,2.8-3.3,4-5.1c0.8-1.3,0.5-3-0.8-3.8c-1.3-0.8-3-0.5-3.8,0.8
		c-1,1.5-2.1,3-3.4,4.3c-1,1-2,1.8-3,2.2c-0.6,0.2-1.1,0.4-1.6,0.2c-0.3-0.1-0.4-0.4-0.6-0.8c-0.2-0.5-0.3-1.2-0.4-2
		c-0.2-2.7-0.1-5.4,0.1-8c0.2,0,0.3,0,0.5-0.1c1.6-0.4,3.1-1,4.7-1.7c1.4-0.6,2-2.2,1.4-3.6c-0.6-1.4-2.2-2-3.6-1.4
		c-0.7,0.3-1.4,0.6-2.1,0.8c0.5-3.2,1.2-6.4,1.9-9.6c2.5-1.3,4.9-2.5,7.5-3.5c1.4-0.5,2.1-2.1,1.6-3.6c-0.5-1.4-2.1-2.1-3.5-1.6
		c-3.4,1.3-6.6,3-9.9,4.7C-80.2-348.7-80.7-347.1-80.1-345.8z M10.6-330.9c0.5-0.3,1.1-0.6,1.6-0.9c1.3-0.8,1.7-2.5,1-3.8
		c-0.8-1.3-2.5-1.7-3.8-1c-2.8,1.6-6,2.9-9,4.1c-1.4,0.5-2.1,2.1-1.6,3.6c0.5,1.4,2.1,2.1,3.6,1.6c1-0.4,2-0.8,3.1-1.2
		c0.2,2.5-0.7,4.8-2.1,6.3c-1,1.1-2.2,1.8-3.5,1.7c-1.4-0.1-2.7-1.1-3.9-2.9c-2.2-3.5-1.6-7.6-0.7-11.4c0.6-2.8,1.6-5.7,3.4-7.9
		c1.8-2.1,4.2-4.1,7-4.5c1.5-0.2,2.5-1.6,2.3-3.1c-0.2-1.5-1.6-2.5-3.1-2.3c-4.2,0.6-7.7,3.3-10.4,6.4c-2.5,2.8-3.8,6.7-4.6,10.3
		c-1.1,5.2-1.6,10.8,1.5,15.5c3.3,5.1,7.5,6.2,11.2,5.1c5.1-1.5,9.5-7.8,8.2-15.1C10.7-330.6,10.7-330.7,10.6-330.9z M17.5-341.8
		c-1.9,5.6-3.4,13.2-2.3,19.1c0.3,1.7,1,3.7,2.1,5.1c1.6,1.9,3.8,3,6.8,1.9c4.2-1.6,6.5-6.1,8-10c3.2-8.3,4.2-18.2,2.8-27.1
		c-0.2-1.5-1.6-2.5-3.1-2.3c-1.5,0.2-2.5,1.6-2.3,3.1c1.2,7.9,0.3,16.8-2.5,24.3c-0.5,1.4-1.2,3-2.1,4.4c-0.7,1.1-1.5,2-2.7,2.4
		c-0.4,0.2-0.7-0.2-0.8-0.5c-0.4-0.7-0.6-1.5-0.8-2.3c-0.9-5.1,0.5-11.6,2.1-16.4c0.5-1.4-0.3-3-1.7-3.5
		C19.5-344,18-343.3,17.5-341.8z M66.4-352.4c-6.7,0.1-11.4,7.1-9.1,13.5c1.1,3.1,3.8,5.8,6,8.4c1,1.3,2,2.4,2,3.8
		c0,1.4-1.1,2.7-3.4,4.5c-0.9,0.7-1.8,1.3-2.9,1.4c-1.5,0.1-2.7,1.4-2.6,2.9c0.1,1.5,1.4,2.7,2.9,2.6c2.3-0.1,4.2-1.1,6-2.5
		c3.4-2.7,4.9-5.1,5.3-7.3c0.5-2.4-0.2-4.7-1.6-6.8c-1-1.6-2.5-3.2-3.9-4.8c-1.1-1.3-2.1-2.6-2.7-4c-1-2.9,1-6,4-6.1
		c1.5,0,2.7-1.3,2.7-2.8C69.1-351.2,67.9-352.4,66.4-352.4z M45.5-353.8c-0.7,0.2-1.4,0.7-1.8,1.4c-4.2,7.9-7.7,17.1-8.7,26.1
		c-0.5,4.7,0.8,7.7,2.6,9.2c1.3,1.1,3,1.7,5,1.6c2.2-0.1,5-1,7.8-2.8c2-1.2,3.7-2.8,5.4-4.3c1.1-1,1.2-2.8,0.2-3.9
		c-1-1.1-2.8-1.2-3.9-0.2c-1.5,1.3-3,2.7-4.7,3.7c-1.6,1-3.1,1.7-4.4,1.9c-0.7,0.1-1.4,0.1-1.9-0.3c-0.3-0.2-0.5-0.6-0.6-1.1
		c-0.2-0.9-0.2-2-0.1-3.3c0.1-1.1,0.3-2.2,0.5-3.3c0.5,0.1,1,0.1,1.5,0c2-0.5,4-0.8,6-1.6c1.4-0.6,2-2.2,1.5-3.6
		c-0.6-1.4-2.2-2-3.6-1.5c-1.3,0.5-2.6,0.8-4,1.1c1.4-4.9,3.4-9.8,5.7-14.2c3.3-0.8,6.6-1.6,9.9-2.6c1.5-0.4,2.3-2,1.8-3.4
		c-0.4-1.5-2-2.3-3.4-1.8c-3.4,1-6.8,1.9-10.2,2.7C45.9-353.9,45.7-353.9,45.5-353.8z M98.1-346.5c-6.4-2.3-11.7,4.4-9.2,10.3
		c0.5,1.2,1.5,2.5,2.7,3.8c1.4,1.5,3.2,3.2,4.5,4.9c0.7,0.9,1.3,1.7,1.2,2.7c0,0.9-0.8,1.6-2.1,2.4c-0.7,0.5-1.6,1-2.4,0.9
		c-1.5-0.1-2.8,1-3,2.5c-0.1,1.5,1,2.8,2.5,3c2.1,0.2,4.2-0.7,5.9-1.8c3.3-2.2,4.4-4.5,4.6-6.7c0.1-2.1-0.8-4.3-2.3-6.3
		c-1.2-1.5-2.7-3.1-4.1-4.5c-1-1.1-2-2-2.4-3c-0.7-1.6,0.5-3.7,2.3-3c1.4,0.5,3-0.2,3.5-1.6C100.2-344.4,99.5-346,98.1-346.5z
		 M78.8-344.3c0.1,8.3-0.4,16.5,0,24.8c0.1,1.5,1.4,2.7,2.9,2.6c1.5-0.1,2.7-1.4,2.6-2.9c-0.5-9.1,0.2-18.3-0.1-27.4
		c0.5-0.3,1-0.6,1.5-0.9c4.7-2.8,9.2-6.1,14-8.8c1.3-0.7,1.8-2.4,1-3.7c-0.7-1.3-2.4-1.8-3.7-1c-4.8,2.7-9.3,6-14.1,8.9
		c-4.7,2.8-9.8,5.1-14.6,7.6c-1.3,0.7-1.8,2.4-1.1,3.7c0.7,1.3,2.4,1.8,3.7,1.1C73.6-341.7,76.2-343,78.8-344.3z"/>
</g>
</svg>
