<?xml version="1.0" encoding="utf-8"?>
<!-- Generator: Adobe Illustrator 24.2.0, SVG Export Plug-In . SVG Version: 6.00 Build 0)  -->
<svg version="1.1" id="Calque_1" xmlns:serif="http://www.serif.com/"
	 xmlns="http://www.w3.org/2000/svg" xmlns:xlink="http://www.w3.org/1999/xlink" x="0px" y="0px" viewBox="0 0 110.8 44.8"
	 style="enable-background:new 0 0 110.8 44.8;" xml:space="preserve">
<style type="text/css">
	.st0{fill-rule:evenodd;clip-rule:evenodd;}
</style>
<g transform="matrix(1,0,0,1,0.0302894,-218.499)">
	<path class="st0" d="M89.4,221.4c-0.9,0.4-1.7,1.2-1.7,2.3c-1.1,12.3-1.2,24.9-0.1,37.1c0.1,1.5,1.5,2.6,3,2.5
		c1.5-0.1,2.6-1.5,2.5-3c-1.1-11.5-1-23.2,0-34.7c8.3-5.1,16.4,6.4,10.1,13.1c-1.5,1.6-4,2.1-6.1,2.5c-1.5,0.3-2.4,1.8-2.1,3.3
		c0.3,1.5,1.8,2.4,3.3,2.1c3.1-0.7,6.7-1.8,9-4.2C117.8,231.1,103.4,211.6,89.4,221.4z M21.8,222.5c-2.9-4.1-7.1-4.8-10.4-3.3
		c-3.2,1.4-5.7,4.9-5.2,9.6c0.3,2.3,1.2,4.9,2.6,6.8c1.6,2.2,3.8,3.7,5.6,5.6c1.6,1.7,3.1,4.3,3.8,6.9c0.6,2.2,0.6,4.5-0.9,6.2
		c-2.6,3.2-7.5,1.7-9.9-1.1c-2.2-2.6-2.4-6.1-1.5-9.3c0.5-1.4-0.4-3-1.8-3.4s-3,0.4-3.4,1.8c-1.5,4.9-0.9,10.3,2.5,14.4
		c4.3,5.3,13.5,7,18.4,1.1c2.1-2.6,2.8-5.7,2.4-8.9c-0.5-4.2-2.9-8.6-5.5-11.4c-1.7-1.8-3.7-3.1-5.2-5.1c-0.8-1.1-1.4-2.7-1.6-4.1
		c-0.2-1.9,0.6-3.4,2-4c1.2-0.5,2.6-0.1,3.7,1.4c0.9,1.2,2.6,1.6,3.8,0.7C22.4,225.5,22.7,223.8,21.8,222.5z M43.3,238.1
		c-3.1,0.6-6.1,1.1-9.2,1.5c0-4.7,0.1-9.4,0.2-14.1c0.1-1.5-1.1-2.8-2.7-2.8c-1.5-0.1-2.8,1.1-2.8,2.7c-0.4,11-0.3,22.2,0.2,33.2
		c0.1,1.5,1.3,2.7,2.9,2.6c1.5-0.1,2.7-1.3,2.6-2.9c-0.2-4.3-0.3-8.7-0.4-13.1c3-0.4,6-0.9,9-1.4c-0.1,4.4-0.2,8.7,0,13.1
		c0.1,1.5,1.3,2.7,2.9,2.6c1.5-0.1,2.7-1.3,2.6-2.9c-0.4-10.9,0.5-22,0.9-32.9c0.1-1.5-1.1-2.8-2.6-2.9c-1.5-0.1-2.8,1.1-2.9,2.6
		C43.8,228.4,43.5,233.3,43.3,238.1z M56.3,241.7c-0.5,2.5-0.7,5.1-0.4,7.6c0.2,1.6,0.5,3.2,1.1,4.8c1.3,3.5,3.7,5.4,6.4,6.1
		c2.6,0.7,5.7,0.1,8.5-1.9c3.7-2.7,5.9-7.1,7.2-11.4c1.7-5.6,2.4-13.2-1-18.4c-1.2-1.9-2.7-3-4.3-3.6c-2.3-0.8-4.8-0.5-7.2,0.7
		c-3.3,1.7-6.3,5.1-7.6,7.9c-0.7,1.4-0.1,3,1.3,3.7c1.4,0.7,3,0.1,3.7-1.3c0.9-1.9,2.9-4.2,5.2-5.4c0.9-0.5,1.9-0.8,2.8-0.5
		c0.6,0.2,1.1,0.7,1.5,1.4c2.5,3.9,1.6,9.7,0.3,13.8c-1,3.2-2.4,6.6-5.2,8.6c-1.3,0.9-2.7,1.4-3.9,1.1c-1.1-0.3-2-1.2-2.6-2.7
		c-0.4-1.1-0.7-2.3-0.8-3.5c-0.2-2,0-4.1,0.4-6c0.3-1.5-0.7-2.9-2.2-3.2C58,239.2,56.5,240.2,56.3,241.7z"/>
</g>
</svg>
