<?xml version="1.0" encoding="utf-8"?>
<!-- Generator: Adobe Illustrator 24.2.0, SVG Export Plug-In . SVG Version: 6.00 Build 0)  -->
<svg version="1.1" id="Calque_1" xmlns:serif="http://www.serif.com/"
	 xmlns="http://www.w3.org/2000/svg" xmlns:xlink="http://www.w3.org/1999/xlink" x="0px" y="0px" viewBox="0 0 202 31.1"
	 style="enable-background:new 0 0 202 31.1;" xml:space="preserve">
<style type="text/css">
	.st0{fill-rule:evenodd;clip-rule:evenodd;}
</style>
<path class="st0" d="M52.4,7.6c-0.6,0.1-1,0.6-1.2,1.2c-0.7,3.5-1.4,7.1-2.2,10.5c-0.2,0.8,0.3,1.6,1.1,1.8c0.8,0.2,1.6-0.3,1.8-1.1
	c0.9-3.4,1.5-6.8,2.2-10.2c0,0,0.1,0,0.1,0c0.3-0.1,0.7-0.3,1.1-0.4c0.2,0,0.4-0.1,0.5-0.1c0.6,0.1,1,0.6,1.4,1.2
	c0.7,1,1.2,2.4,1.1,3.4c-0.1,1.6-0.9,2.4-2.2,3.2c-0.4,0.2-0.7,0.6-0.7,1.1c-0.2,0.4-0.1,0.9,0.1,1.4c2.1,3.2,3.5,7.4,5.4,10.8
	c0.4,0.7,1.3,1,2,0.6c0.7-0.4,1-1.3,0.6-2c-1.7-3.1-3-6.8-4.8-9.9c1.6-1.2,2.5-2.6,2.6-4.9c0.1-1.6-0.5-3.7-1.6-5.3
	c-0.8-1.2-1.9-2.1-3.2-2.4c-1-0.3-2.4,0.2-3.3,0.5C52.9,7.1,52.6,7.3,52.4,7.6z M13.9,22.5c-0.8-1.6-1.6-3.2-2.4-4.8
	c-0.4-0.7-1.3-1-2-0.7c-0.5,0.3-0.8,0.7-0.8,1.3c-0.6,2-1.2,4.1-1.9,6.1C5.4,19,4,13.7,3,8.1C2.8,7.2,2.1,6.7,1.2,6.8
	C0.4,7-0.1,7.8,0,8.6c1.2,6.7,3,13.1,4.6,19.6c0.1,0.4,0.4,0.8,0.8,1c0.1,0.4,0.4,0.7,0.9,0.9C7.1,30.4,8,30,8.3,29.2
	c0.8-2.2,1.6-4.4,2.3-6.7c0.7,1.4,1.4,2.7,2.1,4.1c0,0,0,0,0,0c0,0.6,0.4,1.2,1,1.4c0.8,0.3,1.6-0.2,1.9-0.9
	c2.2-6.5,3.3-13.4,5.8-19.9c0.3-0.8-0.1-1.6-0.8-1.9C19.9,5,19,5.4,18.7,6.1C16.6,11.4,15.5,17,13.9,22.5z M30,17.2
	c-0.1,0-0.2,0-0.2,0.1c-1.5,0.6-3,1.1-4.5,1.5c-0.1-2.8-0.3-5.6-0.4-8.4c0-0.8-0.7-1.5-1.6-1.4c-0.8,0-1.5,0.7-1.4,1.6
	c0.3,5.9,0.6,11.8,0.7,17.7c0,0.8,0.7,1.5,1.5,1.5c0.8,0,1.5-0.7,1.5-1.5c0-2.1-0.1-4.2-0.2-6.3c1.6-0.5,3.2-0.9,4.8-1.6
	c0.2,2.4,0.3,4.7,0.5,7.1c0.1,0.8,0.8,1.4,1.6,1.4c0.8-0.1,1.4-0.8,1.4-1.6c-0.5-6-0.9-12.1-1.3-18.2c-0.1-0.8-0.8-1.5-1.6-1.4
	c-0.8,0.1-1.5,0.8-1.4,1.6C29.6,11.8,29.8,14.5,30,17.2z M173,5.4c0,0-0.1,0-0.1,0c-0.8-0.1-1.6,0.5-1.7,1.3
	c-0.6,6.1-1.2,12.2-1.6,18.3c-0.1,0.8,0.6,1.5,1.4,1.6c0.8,0.1,1.5-0.6,1.6-1.4c0.4-5.7,0.9-11.3,1.5-17l0,0c1.5-0.6,2.9,0,3.8,1
	c1,1.1,1.6,2.9,1.3,4.4c-0.2,1.2-1.5,2.1-2.5,2.8c-0.1,0.1-0.2,0.2-0.3,0.3c-0.6,0.5-0.7,1.4-0.2,2c2.4,3.4,4.1,7.2,7,10.2
	c0.6,0.6,1.5,0.6,2.1,0c0.6-0.6,0.6-1.5,0-2.1c-2.5-2.6-4-5.8-6-8.7c1.3-1,2.4-2.4,2.7-4c0.5-2.5-0.4-5.2-2-7
	C178.3,5.3,175.7,4.3,173,5.4z M141.8,14.4c-2.2,0.1-4.3,0-6.5,0.2c0.1-2,0.2-3.9,0.2-5.9c0-0.8-0.7-1.5-1.5-1.5
	c-0.8,0-1.5,0.7-1.5,1.5c0,5.4-0.6,10.8-0.5,16.2c0,0.8,0.7,1.5,1.5,1.5c0.8,0,1.5-0.7,1.5-1.5c-0.1-2.4,0-4.8,0.2-7.2
	c2.2-0.2,4.4-0.1,6.6-0.2c-0.1,3.5-0.2,7-0.4,10.4c0,0.8,0.6,1.5,1.4,1.6c0.8,0,1.5-0.6,1.6-1.4c0.3-7,0.5-14.1,0.7-21.1
	c0-0.8-0.6-1.5-1.5-1.5c-0.8,0-1.5,0.6-1.5,1.5C142,9.3,141.9,11.8,141.8,14.4z M104,8.8c-1.4-2.8-5-4-7.3-1.3
	c-1.1,1.3-1.4,3.6-1.2,5.2c0.3,2,1.4,3.5,2.8,4.8c1.1,1,2.4,1.9,3.4,3c0.4,0.4,0.7,1,0.9,1.6c0.1,0.4,0.2,0.9,0,1.3
	c-0.2,0.4-0.5,0.8-0.9,1.1c-0.4,0.5-0.9,0.9-1.5,1.2c-0.9,0.5-2,0.5-3,0.6c-0.8,0-1.5,0.7-1.4,1.6c0,0.8,0.7,1.5,1.6,1.4
	c1.5-0.1,3.1-0.2,4.4-1c0.8-0.5,1.6-1.1,2.2-1.8c0.5-0.5,1-1.1,1.3-1.7c1.1-2.1,0.2-4.7-1.2-6.3c-1.1-1.2-2.5-2.2-3.7-3.2
	c-0.9-0.8-1.7-1.7-1.9-3c-0.1-0.9-0.1-2.1,0.5-2.9c0.7-0.9,1.9-0.3,2.3,0.7c0.4,0.7,1.3,1.1,2,0.7C104.1,10.4,104.4,9.5,104,8.8z
	 M198.6,28.7c0.3,0.1,0.7,0.3,1,0.4c0.8,0.3,1.6,0,2-0.8c0.3-0.8,0-1.6-0.8-2c-0.3-0.1-0.7-0.3-1-0.4c-0.8-0.3-1.6,0-2,0.8
	C197.5,27.5,197.9,28.4,198.6,28.7z M40.4,10.2c-0.6,0-1.2,0.4-1.5,1c-1.4,3.8-2.8,8.2-2.4,12.3c0.3,2.7,1.6,4.2,3.2,4.9
	c1.6,0.6,3.6,0.4,5.7-0.9c1.1-0.7,2.1-1.5,3-2.5c0.5-0.6,0.5-1.6-0.1-2.1c-0.6-0.5-1.6-0.5-2.1,0.1c-0.7,0.8-1.5,1.4-2.3,1.9
	c-1.1,0.7-2.2,1-3.1,0.7c-0.8-0.3-1.2-1.2-1.3-2.4c-0.1-0.8-0.1-1.5,0-2.3c0.3,0.1,0.6,0.1,0.8,0c0.7-0.2,1.4-0.5,2.1-0.7
	c0.8-0.3,1.2-1.1,0.9-1.9c-0.3-0.8-1.1-1.2-1.9-0.9c-0.5,0.2-1,0.3-1.5,0.5c0.4-1.6,0.9-3.2,1.5-4.8c1.7-0.8,3.4-1.6,5.1-2.2
	c0.8-0.3,1.2-1.1,0.9-1.9c-0.3-0.8-1.1-1.2-1.9-0.9C43.8,8.6,42.1,9.5,40.4,10.2z M152,9.9c-0.3,0.2-0.6,0.5-0.7,0.9
	c-1,3.6-2.1,7.1-3.2,10.7c-0.1,0-0.3,0-0.4,0c-0.8,0-1.5,0.8-1.4,1.6c0,0.6,0.4,1.1,0.9,1.3c-0.2,0.6-0.4,1.3-0.6,1.9
	c-0.3,0.8,0.2,1.6,1,1.9c0.8,0.3,1.6-0.2,1.9-1c0.3-0.9,0.6-1.9,0.9-2.8c1.7-0.1,3.4-0.2,5.1-0.4c0.3,0,0.5-0.1,0.8-0.1
	c0.3,0.9,0.6,1.9,0.9,2.8c0.3,0.8,1.1,1.2,1.9,0.9c0.8-0.3,1.2-1.1,0.9-1.9c-0.3-0.8-0.5-1.6-0.8-2.4c0.2,0,0.4-0.1,0.6-0.1
	c0.8-0.1,1.4-0.8,1.3-1.6c-0.1-0.8-0.8-1.4-1.6-1.3c-0.4,0-0.8,0.1-1.2,0.2c-1.1-3.7-2.1-7.3-3.4-11c-0.3-0.8-1.1-1.2-1.9-0.9
	C152.4,8.8,152,9.3,152,9.9z M68.8,7.5c-0.6,0.1-1.1,0.5-1.2,1c-1.3,4.1-3.1,8.2-3.3,12.5c-0.1,2.9,1.5,6,4.8,6.1
	c1.3,0,2.5-0.5,3.7-1c1.4-0.6,2.5-1.3,3.6-2.3c0.6-0.6,0.6-1.5,0.1-2.1c-0.6-0.6-1.5-0.6-2.1-0.1c-0.8,0.8-1.7,1.3-2.7,1.8
	c-0.8,0.3-1.6,0.7-2.4,0.7c-1.5,0-1.9-1.6-1.9-2.9c0-0.5,0.1-0.9,0.1-1.4c0.2,0,0.4,0,0.5-0.1c1.1-0.4,2.1-0.7,3.2-1.2
	c0.8-0.3,1.1-1.2,0.8-2c-0.3-0.8-1.2-1.1-2-0.8c-0.6,0.3-1.2,0.5-1.8,0.7c0.6-2.1,1.4-4.3,2.1-6.4c1.3-0.8,2.7-1.3,4.2-1.7
	c0.8-0.2,1.3-1,1.1-1.8c-0.2-0.8-1-1.3-1.8-1.1C71.9,5.9,70.3,6.6,68.8,7.5z M128.3,10.9c-0.8-3-2.8-4.4-4.9-4.6
	c-2-0.1-4.3,1-5.8,3.5c-1.9,3.1-2.4,8.1-0.7,11.4c1.6,3.3,5.2,6.2,9.1,4.1c0.9-0.5,1.7-1.2,2.4-2c0.5-0.6,0.5-1.6-0.1-2.1
	c-0.6-0.5-1.6-0.5-2.1,0.1c-0.5,0.5-0.9,1-1.6,1.3c-1.2,0.7-2.3,0.3-3.2-0.5c-0.7-0.6-1.3-1.5-1.8-2.3c-1.2-2.5-0.8-6.2,0.6-8.5
	c0.8-1.3,1.9-2.1,3-2c1,0.1,1.9,0.9,2.3,2.4c0.2,0.8,1,1.3,1.8,1C128.1,12.6,128.6,11.7,128.3,10.9z M89,10.7
	c0,4.2,0.6,8.5,0.5,12.7c0,0.8,0.6,1.5,1.5,1.5c0.8,0,1.5-0.6,1.5-1.5c0.1-4.3-0.5-8.5-0.5-12.8c0-0.8-0.7-1.5-1.5-1.5
	C89.7,9.2,89,9.9,89,10.7z M162.9,9.5c0.2,3.6,0.9,9.1,0.6,12.6c-0.1,0.8,0.5,1.6,1.3,1.7c0.8,0.1,1.6-0.5,1.7-1.3
	c0.4-3.6-0.4-9.3-0.5-13c0-0.8-0.7-1.5-1.6-1.4C163.5,8,162.9,8.7,162.9,9.5z M153.3,14.4c-0.7,2.3-1.4,4.6-2.1,6.9
	c1.3-0.1,2.6-0.1,3.8-0.3c0.1,0,0.2,0,0.3,0C154.6,18.8,154,16.6,153.3,14.4z M191.1,11.8c-0.9-2.3-0.8-5.5,1-7.3
	c1.6-1.6,4.5-2.4,5.7-0.1c1.9,3.6,0.9,5.9-0.1,8.4c-0.8,2.1-1.6,4.2-1.3,6.8c0.1,0.8,0.8,1.4,1.6,1.3c0.8-0.1,1.4-0.8,1.3-1.6
	c-0.3-2.7,0.9-4.7,1.7-6.9c1-2.7,1.5-5.5-0.6-9.5c-2.3-4.2-7.6-3.4-10.4-0.6c-2.6,2.6-3,7.2-1.7,10.5c0.3,0.8,1.2,1.2,1.9,0.9
	C191.1,13.5,191.4,12.6,191.1,11.8z"/>
</svg>
