<?xml version="1.0" encoding="utf-8"?>
<!-- Generator: Adobe Illustrator 24.2.0, SVG Export Plug-In . SVG Version: 6.00 Build 0)  -->
<svg version="1.1" id="Calque_1" xmlns="http://www.w3.org/2000/svg" xmlns:xlink="http://www.w3.org/1999/xlink" x="0px" y="0px"
	 viewBox="0 0 107.4 34.7" style="enable-background:new 0 0 107.4 34.7;" xml:space="preserve">
<style type="text/css">
	.st0{fill-rule:evenodd;clip-rule:evenodd;}
</style>
<path class="st0" d="M103.2,19.4c-0.2,0.1-0.3,0.3-0.4,0.4c-0.1,0.1-0.2,0.3-0.2,0.4C102.8,19.9,103,19.7,103.2,19.4z M103.5,23.4
	c0.9,0.6,2,0.5,2.9-0.1c0.7-0.6,0.9-1.1,0.9-1.4c0.1-0.5,0.1-1-0.1-1.4c-0.2-0.5-0.5-1-1-1.3c-0.3-0.2-1.7-0.4-1.7-0.4s0.1,0,0.2,0
	c-1.4,0-2.5,1.1-2.5,2.5C102.3,22.2,102.8,23,103.5,23.4z M105.6,31.1c-0.2,0.1-0.4,0.1-0.6,0.1c-0.2,0-0.4,0-0.6-0.1
	C104.7,31.2,105.1,31.2,105.6,31.1z M106.4,30.6c0.4-0.3,0.7-0.8,0.8-1.3c0.4-1.3-0.4-2.7-1.7-3.1c-0.5-0.1-1.4-0.2-2.3,0.5
	c-0.4,0.3-0.9,0.9-1.1,1.3c-0.2,0.4-0.2,0.8-0.2,1.1c0,1.4,1.1,2.5,2.5,2.5C105.3,31.6,106,31.2,106.4,30.6z M52.3,3.7
	c-0.1,0-0.2,0-0.3,0c-1.7,0-3,1.3-3,3c-0.1,7.5-0.1,15.5,0,23c0,1.7,1.4,3,3,3c1.7,0,3-1.4,3-3c-0.1-6.6-0.1-13.7,0-20.5
	C55.3,9,55.7,8.8,56,8.4c0.5-0.5,1.3-0.4,2-0.2c1.1,0.3,2.2,0.9,2.8,1.6c2.1,2.4,1.4,5.6-1.3,7.3c-1.4,0.9-1.9,2.7-1,4.1
	c0.9,1.4,2.7,1.9,4.1,1c6.1-3.7,7.4-10.9,2.8-16.3c-1.6-1.8-4.6-3.5-7.5-3.8C55.9,2,53.9,2.4,52.3,3.7z M23,16.8
	c-0.6,2-1.3,4.4-1.2,6.6c0.2,4.5,2.6,8.4,5.9,10c2.4,1.1,5.4,1.2,8.5-0.8c4-2.5,6.6-7.2,7.5-11.7c0.6-2.7,0.6-7.4-0.5-10.8
	c-0.8-2.3-2.2-4-4-4.9c-1.8-0.8-4.2-0.9-7.3,0.9c-1.4,0.8-1.9,2.7-1.1,4.1c0.8,1.4,2.7,1.9,4.1,1.1c0.8-0.5,1.4-0.8,1.9-0.6
	c0.5,0.2,0.6,0.8,0.8,1.4c0.8,2.4,0.7,5.7,0.3,7.6c-0.6,3-2.2,6.2-4.9,7.9c-0.8,0.5-1.6,0.7-2.2,0.6c-1.9-0.3-2.9-2.7-3-5
	c-0.1-1.5,0.5-3.2,1-4.6c0.5-1.6-0.4-3.3-2-3.7C25.2,14.3,23.5,15.2,23,16.8z M85.1,14c-1,0.4-1.8,1.4-1.8,2.6
	c-0.1,1.7,1.2,3.1,2.9,3.1c1.1,0,2.2,0.1,3.2,0.5c0.8,0.3,1.3,1.1,1.5,1.9c0.3,0.9,0.3,1.9-0.2,2.7c-1,1.6-2.7,2.8-4.6,3.3
	c-1.7,0.5-3.5,0.4-4.9-0.7c-1.3-1-3.2-0.8-4.2,0.4c-1,1.3-0.8,3.2,0.4,4.2C80.2,34.5,84,35,87.6,34c3.4-0.9,6.5-3.1,8.2-6
	c1.3-2.2,1.6-5,0.8-7.5c-0.6-2-1.8-3.8-3.4-4.9c0.1-0.1,0.1-0.1,0.2-0.2c1.9-2.1,2.1-4.8,1.3-7.2c-0.7-2.2-2.4-4.1-4.3-5.1
	c-3.8-2-7.3-1.2-10.3,1.6c-1.2,1.1-1.3,3-0.2,4.2c1.1,1.2,3,1.3,4.2,0.2c1-0.9,2.2-1.3,3.5-0.7c0.6,0.3,1.1,1,1.4,1.7
	c0.1,0.4,0.2,0.9-0.1,1.3c-0.6,0.7-1.5,1.1-2.3,1.4C86,13.1,85.5,13.5,85.1,14z M10.9,13.3c1.1,6.1,1.1,12.4,1.5,18.6
	c0.1,1.7,1.6,2.9,3.2,2.8c1.7-0.1,2.9-1.6,2.8-3.2c-0.5-7-0.5-14-1.9-20.9c3.1-1.6,6.1-3.2,9-5c1.4-0.9,1.9-2.7,1-4.1
	c-0.9-1.4-2.7-1.9-4.1-1c-6.5,4-13.7,7.4-20.6,10.7c-1.5,0.7-2.1,2.5-1.4,4s2.5,2.1,4,1.4C6.5,15.5,8.7,14.4,10.9,13.3z"/>
</svg>
