<?xml version="1.0" encoding="utf-8"?>
<!-- Generator: Adobe Illustrator 24.2.0, SVG Export Plug-In . SVG Version: 6.00 Build 0)  -->
<svg version="1.1" id="Calque_1" xmlns="http://www.w3.org/2000/svg" xmlns:xlink="http://www.w3.org/1999/xlink" x="0px" y="0px"
	 viewBox="0 0 103.5 20.9" style="enable-background:new 0 0 103.5 20.9;" xml:space="preserve">
<style type="text/css">
	.st0{fill-rule:evenodd;clip-rule:evenodd;}
</style>
<g>
	<path class="st0" d="M101.7,10.9c-0.2,0.3-0.2,0.7-0.1,1c0.1,0.2,0.3,0.3,0.4,0.4c0.1,0,0.2,0.1,0.3,0.1c0.3,0,0.6-0.1,0.8-0.4
		c0.1-0.2,0.2-0.5,0.2-0.7s-0.1-0.4-0.2-0.5c-0.1-0.1-0.1-0.1-0.2-0.2c-0.1-0.1-0.3-0.2-0.5-0.2c-0.1,0-0.3,0-0.5,0.2
		C101.9,10.6,101.8,10.7,101.7,10.9z M103.3,17.2c0.1-0.1,0.1-0.1,0.1-0.2c0.1-0.2,0.1-0.5,0-0.7s-0.3-0.4-0.6-0.6
		c-0.3-0.1-0.6-0.2-0.9-0.1c-0.2,0.1-0.4,0.2-0.5,0.4c-0.1,0.2-0.2,0.4-0.1,0.7c0.1,0.4,0.5,0.8,0.7,0.9c0.3,0.1,0.5,0.1,0.7,0
		c0.2-0.1,0.3-0.2,0.4-0.4H103.3z M6.1,8.7C4.7,7,3.9,4.7,2.8,2.8c-0.4-0.7-1.3-1-2-0.6s-1,1.3-0.6,2c1.3,2.3,2.3,5,4.2,6.9
		c0.1,0.1,0.3,0.2,0.5,0.3c-0.8,1.9-1.6,3.8-2.3,5.8c-0.3,0.8,0.2,1.6,0.9,1.9c0.8,0.3,1.6-0.2,1.9-0.9c1.8-5.5,4.6-10.8,7.1-16
		c0.4-0.7,0-1.6-0.7-2s-1.6,0-2,0.7C8.6,3.5,7.3,6.1,6.1,8.7z M25,9.5c-0.2,1.4-0.5,2.8-0.4,4.2c0.1,2.5,0.8,4,1.6,4.8
		c1.3,1.3,3,1.3,4.7,0.3c2.9-1.7,5.6-7.1,3-12.2c-0.4-0.7-1.3-1-2-0.6c-0.7,0.4-1,1.3-0.6,2c1.6,3.1,0.4,6.3-1.3,7.8
		c-0.3,0.2-0.6,0.4-0.9,0.6c-0.2,0.1-0.4,0.2-0.6,0.1c-0.2-0.1-0.3-0.3-0.5-0.6c-0.2-0.5-0.4-1.3-0.4-2.3c0-1.2,0.2-2.4,0.4-3.6
		c0.1-0.8-0.4-1.6-1.2-1.7C25.9,8.2,25.1,8.7,25,9.5z M11.3,11c-0.3,1.4-0.4,2.7-0.3,4.1c0.2,2.4,1.4,4,2.9,4.7s3.4,0.5,5.4-1.1
		c1.8-1.5,3.5-5.4,3.6-8.5c0.1-1.9-0.5-3.5-1.5-4.4c-1.1-0.9-2.7-1.4-5.3-0.3c-0.8,0.3-1.1,1.2-0.8,2c0.3,0.8,1.2,1.1,2,0.8
		c0.5-0.2,1-0.4,1.4-0.4c0.3,0,0.6,0,0.7,0.2c0.5,0.4,0.5,1.2,0.5,2c-0.1,2.3-1.1,5.2-2.5,6.3c-0.8,0.7-1.6,1-2.3,0.7
		c-0.7-0.3-1-1.1-1.1-2.2c-0.1-1.1,0-2.1,0.2-3.2c0.2-0.8-0.4-1.6-1.2-1.8C12.3,9.7,11.5,10.2,11.3,11z M39.1,3.3
		c-0.2-0.1-0.4-0.1-0.6-0.1c-0.8,0-1.5,0.7-1.4,1.6c0.2,4.2,0.2,8.3,0,12.5c0,0.8,0.6,1.5,1.4,1.6c0.8,0,1.5-0.6,1.6-1.4
		c0.2-3.8,0.2-7.5,0-11.3c0.5-0.4,1-0.6,1.6-0.3c0.6,0.3,1,0.6,1.2,1C43.2,7.5,43,8.3,42.8,9c-0.4,1.4-0.8,2.9-0.5,4.3
		c0.4,2.3,1.6,4.5,3.1,6.3c0.5,0.6,1.5,0.8,2.1,0.2c0.6-0.5,0.8-1.5,0.2-2.1c-1.2-1.5-2.1-3.2-2.5-5c-0.1-0.5,0-1.1,0.1-1.7
		c0.2-0.8,0.4-1.6,0.6-2.4c0.2-1,0.2-2-0.2-3c-0.4-0.9-1.1-1.8-2.6-2.6C41.7,2.4,40.3,2.6,39.1,3.3z"/>
	<path class="st0" d="M70.8,4.5c-1.7,3-2.7,6.6-2,10c0.5,2.4,1.7,4,3.2,4.4c1,0.3,2.3,0.1,3.9-0.9c0.8-0.5,1.5-1.2,2.3-1.8
		c0.6-0.6,0.7-1.5,0.1-2.1c-0.6-0.6-1.5-0.7-2.1-0.1c-0.6,0.5-1.2,1.1-1.9,1.5c-0.6,0.4-1.1,0.6-1.5,0.5c-0.2-0.1-0.3-0.2-0.5-0.4
		c-0.3-0.4-0.4-1-0.6-1.7c-0.2-0.8-0.2-1.6-0.1-2.4c0.2,0,0.4,0,0.6,0c1-0.3,1.9-0.5,2.8-0.9c0.8-0.3,1.1-1.2,0.8-2
		c-0.3-0.8-1.2-1.1-2-0.8c-0.5,0.2-1,0.4-1.5,0.5c0.3-0.9,0.8-1.8,1.2-2.7c0.1-0.1,0.1-0.2,0.1-0.3c1-0.1,1.9-0.3,2.9-0.5
		c0.8-0.2,1.3-1,1.2-1.8c-0.2-0.8-1-1.3-1.8-1.2c-1.3,0.3-2.6,0.5-3.9,0.6c-0.8,0.1-1.5,0.8-1.4,1.6C70.7,4.2,70.8,4.4,70.8,4.5z
		 M93.6,8.6c-0.3,3.3-0.6,6.6-0.7,9.8c0,0.8,0.6,1.5,1.4,1.6s1.5-0.6,1.6-1.4c0.2-3.8,0.5-7.7,0.8-11.5c1.7-0.9,3.3-1.7,5.1-2.4
		c0.8-0.3,1.1-1.2,0.8-2c-0.3-0.8-1.2-1.1-2-0.8c-3.9,1.6-7.2,4-11.3,5.1c-0.8,0.2-1.3,1-1.1,1.8c0.2,0.8,1,1.3,1.8,1.1
		C91.4,9.6,92.5,9.1,93.6,8.6z M84.9,3.4c-2.1,0.3-3.5,1.5-4.2,3C80,7.9,80,9.7,80.9,11.6c0.4,0.8,0.9,1.4,1.4,2.1
		c0.3,0.4,0.7,0.9,0.8,1.4c0.1,0.5-0.3,0.9-0.7,1.2c-0.7,0.5-1.5,0.8-2.2,0.7c-0.8,0-1.5,0.6-1.6,1.4s0.6,1.5,1.4,1.6
		c1.5,0.1,3.6-0.6,4.8-1.9c1-1,1.5-2.4,1.1-3.9c-0.2-0.7-0.6-1.4-1-2c-0.5-0.6-1-1.2-1.4-1.9c-0.4-0.9-0.5-1.9-0.2-2.6
		c0.3-0.7,1-1.1,1.9-1.3c0.8-0.1,1.4-0.9,1.2-1.7C86.5,3.9,85.7,3.3,84.9,3.4z M56.2,3.4c-0.1,0-0.2,0-0.4,0
		c-0.8,0.1-1.4,0.9-1.3,1.7c0.4,2.9,0.7,5.8,1.1,8.7c0.1,0.8,0.9,1.4,1.7,1.2c0.8-0.1,1.4-0.9,1.2-1.7c-0.4-2.5-0.7-5.1-1-7.7
		c0,0,0,0,0.1,0c0.8-0.1,1.6,0,2.3,0.3c0.5,0.2,0.9,0.5,1.1,1c0.1,0.4,0,0.8-0.2,1.4c-0.4,0.2-0.8,0.7-0.8,1.2
		c-0.1,0.8,0.6,1.5,1.4,1.6c2.3,0.2,4.6,2.3,3.2,4.6c-1,1.6-3.1,2.2-4.9,2.2c-0.8,0-1.5,0.7-1.5,1.5s0.7,1.5,1.5,1.5
		c2.8,0,5.9-1.1,7.4-3.6c2.2-3.6,0-7.3-3.3-8.6c0.3-1,0.3-1.9,0-2.7c-0.8-2.3-3.7-3.7-6.6-3.3C56.9,2.7,56.5,3,56.2,3.4z"/>
</g>
</svg>
